<mxfile host="Electron" agent="Mozilla/5.0 (Windows NT 10.0; Win64; x64) AppleWebKit/537.36 (KHTML, like Gecko) draw.io/27.0.9 Chrome/134.0.6998.205 Electron/35.4.0 Safari/537.36" version="27.0.9">
  <diagram name="PÃ¡gina-1" id="umwc6VJWPvGqkEA7Z-3x">
    <mxGraphModel dx="1678" dy="989" grid="1" gridSize="10" guides="1" tooltips="1" connect="1" arrows="1" fold="1" page="1" pageScale="1" pageWidth="827" pageHeight="1169" math="0" shadow="0">
      <root>
        <mxCell id="0" />
        <mxCell id="1" parent="0" />
        <mxCell id="mP4rjo1h_XhtTG6hpvWG-1" value="Cliente" style="shape=umlLifeline;perimeter=lifelinePerimeter;whiteSpace=wrap;container=1;dropTarget=0;collapsible=0;recursiveResize=0;outlineConnect=0;portConstraint=eastwest;newEdgeStyle={&quot;edgeStyle&quot;:&quot;elbowEdgeStyle&quot;,&quot;elbow&quot;:&quot;vertical&quot;,&quot;curved&quot;:0,&quot;rounded&quot;:0};size=65;" vertex="1" parent="1">
          <mxGeometry x="20" y="20" width="150" height="992" as="geometry" />
        </mxCell>
        <mxCell id="mP4rjo1h_XhtTG6hpvWG-2" value="AuthenticationController" style="shape=umlLifeline;perimeter=lifelinePerimeter;whiteSpace=wrap;container=1;dropTarget=0;collapsible=0;recursiveResize=0;outlineConnect=0;portConstraint=eastwest;newEdgeStyle={&quot;edgeStyle&quot;:&quot;elbowEdgeStyle&quot;,&quot;elbow&quot;:&quot;vertical&quot;,&quot;curved&quot;:0,&quot;rounded&quot;:0};size=65;" vertex="1" parent="1">
          <mxGeometry x="308" y="20" width="196" height="992" as="geometry" />
        </mxCell>
        <mxCell id="mP4rjo1h_XhtTG6hpvWG-3" value="" style="points=[];perimeter=orthogonalPerimeter;outlineConnect=0;targetShapes=umlLifeline;portConstraint=eastwest;newEdgeStyle={&quot;edgeStyle&quot;:&quot;elbowEdgeStyle&quot;,&quot;elbow&quot;:&quot;vertical&quot;,&quot;curved&quot;:0,&quot;rounded&quot;:0}" vertex="1" parent="mP4rjo1h_XhtTG6hpvWG-2">
          <mxGeometry x="93" y="107" width="10" height="790" as="geometry" />
        </mxCell>
        <mxCell id="mP4rjo1h_XhtTG6hpvWG-4" value="IUserService" style="shape=umlLifeline;perimeter=lifelinePerimeter;whiteSpace=wrap;container=1;dropTarget=0;collapsible=0;recursiveResize=0;outlineConnect=0;portConstraint=eastwest;newEdgeStyle={&quot;edgeStyle&quot;:&quot;elbowEdgeStyle&quot;,&quot;elbow&quot;:&quot;vertical&quot;,&quot;curved&quot;:0,&quot;rounded&quot;:0};size=65;" vertex="1" parent="1">
          <mxGeometry x="568" y="20" width="150" height="992" as="geometry" />
        </mxCell>
        <mxCell id="mP4rjo1h_XhtTG6hpvWG-5" value="" style="points=[];perimeter=orthogonalPerimeter;outlineConnect=0;targetShapes=umlLifeline;portConstraint=eastwest;newEdgeStyle={&quot;edgeStyle&quot;:&quot;elbowEdgeStyle&quot;,&quot;elbow&quot;:&quot;vertical&quot;,&quot;curved&quot;:0,&quot;rounded&quot;:0}" vertex="1" parent="mP4rjo1h_XhtTG6hpvWG-4">
          <mxGeometry x="70" y="159" width="10" height="260" as="geometry" />
        </mxCell>
        <mxCell id="mP4rjo1h_XhtTG6hpvWG-6" value="" style="points=[];perimeter=orthogonalPerimeter;outlineConnect=0;targetShapes=umlLifeline;portConstraint=eastwest;newEdgeStyle={&quot;edgeStyle&quot;:&quot;elbowEdgeStyle&quot;,&quot;elbow&quot;:&quot;vertical&quot;,&quot;curved&quot;:0,&quot;rounded&quot;:0}" vertex="1" parent="mP4rjo1h_XhtTG6hpvWG-4">
          <mxGeometry x="70" y="575" width="10" height="260" as="geometry" />
        </mxCell>
        <mxCell id="mP4rjo1h_XhtTG6hpvWG-7" value="IUserRepository" style="shape=umlLifeline;perimeter=lifelinePerimeter;whiteSpace=wrap;container=1;dropTarget=0;collapsible=0;recursiveResize=0;outlineConnect=0;portConstraint=eastwest;newEdgeStyle={&quot;edgeStyle&quot;:&quot;elbowEdgeStyle&quot;,&quot;elbow&quot;:&quot;vertical&quot;,&quot;curved&quot;:0,&quot;rounded&quot;:0};size=65;" vertex="1" parent="1">
          <mxGeometry x="768" y="20" width="150" height="992" as="geometry" />
        </mxCell>
        <mxCell id="mP4rjo1h_XhtTG6hpvWG-8" value="" style="points=[];perimeter=orthogonalPerimeter;outlineConnect=0;targetShapes=umlLifeline;portConstraint=eastwest;newEdgeStyle={&quot;edgeStyle&quot;:&quot;elbowEdgeStyle&quot;,&quot;elbow&quot;:&quot;vertical&quot;,&quot;curved&quot;:0,&quot;rounded&quot;:0}" vertex="1" parent="mP4rjo1h_XhtTG6hpvWG-7">
          <mxGeometry x="70" y="211" width="10" height="146" as="geometry" />
        </mxCell>
        <mxCell id="mP4rjo1h_XhtTG6hpvWG-9" value="" style="points=[];perimeter=orthogonalPerimeter;outlineConnect=0;targetShapes=umlLifeline;portConstraint=eastwest;newEdgeStyle={&quot;edgeStyle&quot;:&quot;elbowEdgeStyle&quot;,&quot;elbow&quot;:&quot;vertical&quot;,&quot;curved&quot;:0,&quot;rounded&quot;:0}" vertex="1" parent="mP4rjo1h_XhtTG6hpvWG-7">
          <mxGeometry x="70" y="627" width="10" height="146" as="geometry" />
        </mxCell>
        <mxCell id="mP4rjo1h_XhtTG6hpvWG-10" value="BCryptPasswordEncoder" style="shape=umlLifeline;perimeter=lifelinePerimeter;whiteSpace=wrap;container=1;dropTarget=0;collapsible=0;recursiveResize=0;outlineConnect=0;portConstraint=eastwest;newEdgeStyle={&quot;edgeStyle&quot;:&quot;elbowEdgeStyle&quot;,&quot;elbow&quot;:&quot;vertical&quot;,&quot;curved&quot;:0,&quot;rounded&quot;:0};size=65;" vertex="1" parent="1">
          <mxGeometry x="968" y="20" width="191" height="992" as="geometry" />
        </mxCell>
        <mxCell id="mP4rjo1h_XhtTG6hpvWG-11" value="" style="points=[];perimeter=orthogonalPerimeter;outlineConnect=0;targetShapes=umlLifeline;portConstraint=eastwest;newEdgeStyle={&quot;edgeStyle&quot;:&quot;elbowEdgeStyle&quot;,&quot;elbow&quot;:&quot;vertical&quot;,&quot;curved&quot;:0,&quot;rounded&quot;:0}" vertex="1" parent="mP4rjo1h_XhtTG6hpvWG-10">
          <mxGeometry x="91" y="471" width="10" height="52" as="geometry" />
        </mxCell>
        <mxCell id="mP4rjo1h_XhtTG6hpvWG-12" value="Banco de Dados" style="shape=umlLifeline;perimeter=lifelinePerimeter;whiteSpace=wrap;container=1;dropTarget=0;collapsible=0;recursiveResize=0;outlineConnect=0;portConstraint=eastwest;newEdgeStyle={&quot;edgeStyle&quot;:&quot;elbowEdgeStyle&quot;,&quot;elbow&quot;:&quot;vertical&quot;,&quot;curved&quot;:0,&quot;rounded&quot;:0};size=65;" vertex="1" parent="1">
          <mxGeometry x="1209" y="20" width="150" height="992" as="geometry" />
        </mxCell>
        <mxCell id="mP4rjo1h_XhtTG6hpvWG-13" value="" style="points=[];perimeter=orthogonalPerimeter;outlineConnect=0;targetShapes=umlLifeline;portConstraint=eastwest;newEdgeStyle={&quot;edgeStyle&quot;:&quot;elbowEdgeStyle&quot;,&quot;elbow&quot;:&quot;vertical&quot;,&quot;curved&quot;:0,&quot;rounded&quot;:0}" vertex="1" parent="mP4rjo1h_XhtTG6hpvWG-12">
          <mxGeometry x="70" y="263" width="10" height="32" as="geometry" />
        </mxCell>
        <mxCell id="mP4rjo1h_XhtTG6hpvWG-14" value="" style="points=[];perimeter=orthogonalPerimeter;outlineConnect=0;targetShapes=umlLifeline;portConstraint=eastwest;newEdgeStyle={&quot;edgeStyle&quot;:&quot;elbowEdgeStyle&quot;,&quot;elbow&quot;:&quot;vertical&quot;,&quot;curved&quot;:0,&quot;rounded&quot;:0}" vertex="1" parent="mP4rjo1h_XhtTG6hpvWG-12">
          <mxGeometry x="70" y="679" width="10" height="32" as="geometry" />
        </mxCell>
        <mxCell id="mP4rjo1h_XhtTG6hpvWG-15" value="POST /auth/register (RegisterDTO)" style="verticalAlign=bottom;edgeStyle=elbowEdgeStyle;elbow=vertical;curved=0;rounded=0;endArrow=block;" edge="1" parent="1" source="mP4rjo1h_XhtTG6hpvWG-1" target="mP4rjo1h_XhtTG6hpvWG-3">
          <mxGeometry relative="1" as="geometry">
            <Array as="points">
              <mxPoint x="257" y="127" />
            </Array>
          </mxGeometry>
        </mxCell>
        <mxCell id="mP4rjo1h_XhtTG6hpvWG-16" value="findByEmail(email)" style="verticalAlign=bottom;edgeStyle=elbowEdgeStyle;elbow=vertical;curved=0;rounded=0;endArrow=block;" edge="1" parent="1" source="mP4rjo1h_XhtTG6hpvWG-3" target="mP4rjo1h_XhtTG6hpvWG-5">
          <mxGeometry relative="1" as="geometry">
            <Array as="points">
              <mxPoint x="533" y="179" />
            </Array>
          </mxGeometry>
        </mxCell>
        <mxCell id="mP4rjo1h_XhtTG6hpvWG-17" value="findByEmail(email)" style="verticalAlign=bottom;edgeStyle=elbowEdgeStyle;elbow=vertical;curved=0;rounded=0;endArrow=block;" edge="1" parent="1" source="mP4rjo1h_XhtTG6hpvWG-5" target="mP4rjo1h_XhtTG6hpvWG-8">
          <mxGeometry relative="1" as="geometry">
            <Array as="points">
              <mxPoint x="752" y="231" />
            </Array>
          </mxGeometry>
        </mxCell>
        <mxCell id="mP4rjo1h_XhtTG6hpvWG-18" value="SELECT * FROM users WHERE email=?" style="verticalAlign=bottom;edgeStyle=elbowEdgeStyle;elbow=vertical;curved=0;rounded=0;endArrow=block;" edge="1" parent="1" source="mP4rjo1h_XhtTG6hpvWG-8" target="mP4rjo1h_XhtTG6hpvWG-13">
          <mxGeometry relative="1" as="geometry">
            <Array as="points">
              <mxPoint x="1072" y="283" />
            </Array>
          </mxGeometry>
        </mxCell>
        <mxCell id="mP4rjo1h_XhtTG6hpvWG-19" value="null" style="verticalAlign=bottom;edgeStyle=elbowEdgeStyle;elbow=vertical;curved=0;rounded=0;dashed=1;dashPattern=2 3;endArrow=block;" edge="1" parent="1" source="mP4rjo1h_XhtTG6hpvWG-12" target="mP4rjo1h_XhtTG6hpvWG-8">
          <mxGeometry relative="1" as="geometry">
            <Array as="points">
              <mxPoint x="1075" y="335" />
            </Array>
          </mxGeometry>
        </mxCell>
        <mxCell id="mP4rjo1h_XhtTG6hpvWG-20" value="null" style="verticalAlign=bottom;edgeStyle=elbowEdgeStyle;elbow=vertical;curved=0;rounded=0;dashed=1;dashPattern=2 3;endArrow=block;" edge="1" parent="1" source="mP4rjo1h_XhtTG6hpvWG-7" target="mP4rjo1h_XhtTG6hpvWG-5">
          <mxGeometry relative="1" as="geometry">
            <Array as="points">
              <mxPoint x="755" y="387" />
            </Array>
          </mxGeometry>
        </mxCell>
        <mxCell id="mP4rjo1h_XhtTG6hpvWG-21" value="null (usuÃ¡rio nÃ£o existe)" style="verticalAlign=bottom;edgeStyle=elbowEdgeStyle;elbow=vertical;curved=0;rounded=0;dashed=1;dashPattern=2 3;endArrow=block;" edge="1" parent="1" source="mP4rjo1h_XhtTG6hpvWG-5" target="mP4rjo1h_XhtTG6hpvWG-3">
          <mxGeometry relative="1" as="geometry">
            <Array as="points">
              <mxPoint x="536" y="439" />
            </Array>
          </mxGeometry>
        </mxCell>
        <mxCell id="mP4rjo1h_XhtTG6hpvWG-22" value="encode(password)" style="verticalAlign=bottom;edgeStyle=elbowEdgeStyle;elbow=vertical;curved=0;rounded=0;endArrow=block;" edge="1" parent="1" source="mP4rjo1h_XhtTG6hpvWG-3" target="mP4rjo1h_XhtTG6hpvWG-11">
          <mxGeometry relative="1" as="geometry">
            <Array as="points">
              <mxPoint x="743" y="491" />
            </Array>
          </mxGeometry>
        </mxCell>
        <mxCell id="mP4rjo1h_XhtTG6hpvWG-23" value="hashedPassword" style="verticalAlign=bottom;edgeStyle=elbowEdgeStyle;elbow=vertical;curved=0;rounded=0;dashed=1;dashPattern=2 3;endArrow=block;" edge="1" parent="1" source="mP4rjo1h_XhtTG6hpvWG-11" target="mP4rjo1h_XhtTG6hpvWG-3">
          <mxGeometry relative="1" as="geometry">
            <Array as="points">
              <mxPoint x="746" y="543" />
            </Array>
          </mxGeometry>
        </mxCell>
        <mxCell id="mP4rjo1h_XhtTG6hpvWG-24" value="createUser(newUser)" style="verticalAlign=bottom;edgeStyle=elbowEdgeStyle;elbow=vertical;curved=0;rounded=0;endArrow=block;" edge="1" parent="1" source="mP4rjo1h_XhtTG6hpvWG-3" target="mP4rjo1h_XhtTG6hpvWG-6">
          <mxGeometry relative="1" as="geometry">
            <Array as="points">
              <mxPoint x="533" y="595" />
            </Array>
          </mxGeometry>
        </mxCell>
        <mxCell id="mP4rjo1h_XhtTG6hpvWG-25" value="save(newUser)" style="verticalAlign=bottom;edgeStyle=elbowEdgeStyle;elbow=vertical;curved=0;rounded=0;endArrow=block;" edge="1" parent="1" source="mP4rjo1h_XhtTG6hpvWG-6" target="mP4rjo1h_XhtTG6hpvWG-9">
          <mxGeometry relative="1" as="geometry">
            <Array as="points">
              <mxPoint x="752" y="647" />
            </Array>
          </mxGeometry>
        </mxCell>
        <mxCell id="mP4rjo1h_XhtTG6hpvWG-26" value="INSERT INTO users (...)" style="verticalAlign=bottom;edgeStyle=elbowEdgeStyle;elbow=vertical;curved=0;rounded=0;endArrow=block;" edge="1" parent="1" source="mP4rjo1h_XhtTG6hpvWG-9" target="mP4rjo1h_XhtTG6hpvWG-14">
          <mxGeometry relative="1" as="geometry">
            <Array as="points">
              <mxPoint x="1072" y="699" />
            </Array>
          </mxGeometry>
        </mxCell>
        <mxCell id="mP4rjo1h_XhtTG6hpvWG-27" value="userWithId" style="verticalAlign=bottom;edgeStyle=elbowEdgeStyle;elbow=vertical;curved=0;rounded=0;dashed=1;dashPattern=2 3;endArrow=block;" edge="1" parent="1" source="mP4rjo1h_XhtTG6hpvWG-12" target="mP4rjo1h_XhtTG6hpvWG-9">
          <mxGeometry relative="1" as="geometry">
            <Array as="points">
              <mxPoint x="1075" y="751" />
            </Array>
          </mxGeometry>
        </mxCell>
        <mxCell id="mP4rjo1h_XhtTG6hpvWG-28" value="createdUser" style="verticalAlign=bottom;edgeStyle=elbowEdgeStyle;elbow=vertical;curved=0;rounded=0;dashed=1;dashPattern=2 3;endArrow=block;" edge="1" parent="1" source="mP4rjo1h_XhtTG6hpvWG-7" target="mP4rjo1h_XhtTG6hpvWG-6">
          <mxGeometry relative="1" as="geometry">
            <Array as="points">
              <mxPoint x="755" y="803" />
            </Array>
          </mxGeometry>
        </mxCell>
        <mxCell id="mP4rjo1h_XhtTG6hpvWG-29" value="createdUser" style="verticalAlign=bottom;edgeStyle=elbowEdgeStyle;elbow=vertical;curved=0;rounded=0;dashed=1;dashPattern=2 3;endArrow=block;" edge="1" parent="1" source="mP4rjo1h_XhtTG6hpvWG-6" target="mP4rjo1h_XhtTG6hpvWG-3">
          <mxGeometry relative="1" as="geometry">
            <Array as="points">
              <mxPoint x="536" y="855" />
            </Array>
          </mxGeometry>
        </mxCell>
        <mxCell id="mP4rjo1h_XhtTG6hpvWG-30" value="201 CREATED (UserResponseDTO)" style="verticalAlign=bottom;edgeStyle=elbowEdgeStyle;elbow=vertical;curved=0;rounded=0;dashed=1;dashPattern=2 3;endArrow=block;" edge="1" parent="1" source="mP4rjo1h_XhtTG6hpvWG-3" target="mP4rjo1h_XhtTG6hpvWG-1">
          <mxGeometry relative="1" as="geometry">
            <Array as="points">
              <mxPoint x="260" y="907" />
            </Array>
          </mxGeometry>
        </mxCell>
      </root>
    </mxGraphModel>
  </diagram>
</mxfile>
